<?xml version="1.0" standalone="no"?>
<!DOCTYPE svg PUBLIC "-//W3C//DTD SVG 20010904//EN"
 "http://www.w3.org/TR/2001/REC-SVG-20010904/DTD/svg10.dtd">
<svg version="1.0" xmlns="http://www.w3.org/2000/svg"
 width="2161.000000pt" height="2161.000000pt" viewBox="0 0 2161.000000 2161.000000"
 preserveAspectRatio="xMidYMid meet">
<metadata>
Created by potrace 1.14, written by Peter Selinger 2001-2017
</metadata>
<g transform="translate(0.000000,2161.000000) scale(0.100000,-0.100000)"
fill="#000000" stroke="none">
<path d="M10169 19092 c-2 -10 -2 -11 5 -67 6 -43 11 -80 31 -205 2 -14 9 -61
15 -105 15 -105 19 -135 25 -165 2 -14 7 -45 10 -70 6 -46 18 -131 20 -140 1
-3 5 -32 9 -65 8 -65 13 -98 20 -130 2 -11 7 -42 10 -70 9 -63 19 -136 51
-350 14 -93 28 -188 31 -210 8 -59 14 -75 29 -75 15 0 21 14 30 70 3 19 11 55
16 80 6 25 13 56 15 70 3 14 7 32 9 40 2 8 7 29 10 46 3 18 23 119 44 225 22
107 42 205 44 219 3 14 8 36 11 50 3 14 8 36 10 50 3 14 27 138 55 275 29 138
54 264 57 280 3 17 9 48 14 70 5 22 12 56 15 75 3 19 10 52 14 72 l9 37 -304
-1 c-167 0 -305 -3 -305 -6z"/>
<path d="M7690 18388 c-124 -105 -226 -193 -227 -197 -1 -3 23 -26 53 -51 30
-25 70 -58 88 -75 18 -16 66 -59 107 -95 41 -35 76 -67 79 -70 3 -3 52 -45
110 -95 58 -49 107 -92 110 -95 3 -3 93 -82 200 -175 107 -93 197 -172 200
-175 6 -6 136 -119 174 -151 16 -13 39 -33 51 -44 95 -88 94 -90 20 50 -38 72
-78 148 -90 170 -12 22 -44 81 -70 130 -26 50 -60 113 -75 140 -15 28 -51 95
-80 150 -29 55 -85 159 -123 230 -38 72 -90 168 -115 215 -25 47 -64 119 -86
160 -23 41 -52 96 -66 123 -14 26 -27 47 -30 46 -3 0 -106 -86 -230 -191z"/>
<path d="M12669 18358 c-15 -24 -110 -176 -212 -338 -102 -162 -220 -349 -261
-415 -41 -66 -107 -169 -145 -230 -39 -60 -88 -139 -110 -175 -22 -36 -50 -80
-63 -99 -16 -24 -17 -32 -6 -25 43 24 1227 920 1228 928 0 5 -31 39 -69 75
-38 36 -128 123 -200 194 -72 70 -132 127 -133 127 -2 0 -15 -19 -29 -42z"/>
<path d="M6400 17252 c-35 -40 -198 -215 -302 -326 -37 -40 -53 -65 -47 -72 6
-8 1083 -753 1321 -914 20 -13 21 -13 13 0 -13 22 -831 1185 -879 1250 -23 31
-48 66 -56 78 l-15 23 -35 -39z"/>
<path d="M14237 17047 c-59 -73 -120 -146 -135 -163 -15 -18 -67 -81 -117
-140 -49 -60 -97 -118 -106 -129 -17 -20 -207 -248 -283 -339 -23 -27 -55 -66
-71 -85 -17 -20 -64 -76 -105 -125 l-74 -90 99 54 c55 29 125 67 157 84 31 17
85 46 120 65 79 43 150 81 208 113 25 14 79 43 120 65 41 22 181 98 310 168
129 70 260 141 290 157 30 17 57 32 59 34 7 6 -342 464 -353 463 -6 0 -59 -60
-119 -132z"/>
<path d="M10205 16744 c-217 -33 -343 -111 -415 -257 -34 -70 -35 -72 -45
-337 -3 -96 -8 -182 -11 -191 -4 -15 -37 -17 -307 -17 -319 -1 -347 -4 -522
-53 -320 -91 -496 -201 -637 -399 -87 -123 -93 -148 -93 -365 0 -161 10 -370
20 -425 2 -8 6 -49 9 -90 7 -70 9 -91 21 -187 2 -21 7 -63 10 -93 4 -30 8 -66
10 -80 2 -14 7 -59 10 -100 4 -41 8 -77 10 -80 1 -3 6 -41 10 -84 4 -43 8 -86
10 -95 1 -9 6 -47 10 -86 4 -38 8 -83 10 -100 11 -93 17 -143 20 -165 2 -14 6
-54 10 -90 3 -36 8 -76 10 -90 2 -14 7 -54 11 -90 3 -36 7 -72 9 -80 1 -8 6
-49 10 -90 4 -41 9 -82 10 -90 2 -9 6 -47 10 -85 3 -39 8 -81 10 -95 2 -14 7
-54 10 -90 4 -36 9 -74 11 -84 2 -10 6 -50 9 -88 4 -38 8 -77 10 -86 2 -10 6
-49 9 -87 4 -39 9 -81 11 -95 3 -14 7 -50 10 -80 2 -30 6 -71 9 -90 6 -39 12
-95 21 -185 4 -33 8 -71 10 -84 2 -13 7 -58 10 -100 4 -42 8 -78 10 -81 2 -3
6 -39 10 -80 4 -41 8 -82 10 -90 2 -8 6 -49 10 -90 4 -41 9 -83 10 -92 2 -9 6
-48 10 -85 3 -37 8 -79 10 -93 3 -14 7 -52 10 -85 3 -33 8 -71 10 -85 2 -14 7
-50 10 -80 3 -30 8 -71 10 -90 5 -43 13 -119 20 -185 3 -27 8 -72 11 -100 3
-27 7 -68 9 -90 7 -64 15 -137 20 -175 3 -19 7 -60 10 -90 3 -30 10 -89 15
-130 5 -41 12 -97 15 -125 13 -116 20 -175 30 -245 2 -14 7 -47 10 -75 10 -94
27 -170 45 -212 56 -127 216 -292 408 -422 59 -40 194 -109 224 -115 7 -1 31
-8 53 -14 83 -23 105 -25 275 -26 l175 -2 45 -43 c193 -189 304 -244 474 -237
150 7 249 60 366 198 35 40 63 74 64 75 1 1 28 4 61 7 363 34 665 96 780 161
126 70 240 231 303 425 21 65 26 97 37 220 3 36 8 81 10 100 11 81 15 119 20
180 3 36 8 76 10 90 2 14 7 59 10 100 4 41 9 82 10 90 2 9 6 49 9 91 3 41 8
83 10 94 2 11 7 52 10 90 4 39 9 84 11 100 2 17 7 57 10 90 16 159 25 240 30
275 2 14 6 54 10 90 4 36 8 76 10 90 2 14 9 70 15 125 6 55 13 116 16 135 2
19 7 55 9 80 5 53 14 131 20 180 3 19 7 58 10 85 3 28 7 66 10 85 2 19 7 60
10 90 3 30 10 89 15 130 14 113 19 160 25 215 6 52 12 104 20 165 2 19 7 60
10 90 3 30 8 71 10 90 2 19 7 58 10 85 3 28 7 66 10 85 2 19 7 64 11 100 3 36
8 72 9 80 1 8 6 44 10 80 3 36 8 76 10 90 2 14 7 54 10 90 4 36 8 72 10 80 1
8 6 49 10 90 4 41 9 83 10 92 2 9 7 48 10 85 4 37 8 75 10 83 4 16 11 102 20
235 12 181 16 233 20 290 5 59 11 154 20 290 11 173 16 253 20 290 2 22 7 90
10 150 4 61 9 126 11 145 2 19 7 118 9 220 8 272 -3 298 -199 487 -133 129
-205 176 -342 222 -63 21 -96 22 -764 36 -85 2 -169 4 -186 4 l-31 1 1 168 c1
207 -7 268 -39 331 -65 128 -261 257 -429 282 -87 13 -345 9 -451 -7z"/>
<path d="M5684 15138 c-8 -36 -9 -44 -19 -133 -12 -106 -14 -128 -21 -224 -4
-53 -3 -92 2 -89 5 3 50 9 99 12 50 4 113 9 140 12 28 2 77 6 110 9 33 2 85 7
115 9 30 3 85 8 123 11 37 3 86 7 110 9 80 9 182 18 222 21 37 3 135 12 230
20 76 6 160 15 180 19 11 3 29 5 40 5 33 2 3 17 -70 36 -38 11 -74 20 -80 21
-5 1 -62 16 -125 34 -149 41 -1023 260 -1037 260 -6 0 -15 -15 -19 -32z"/>
<path d="M15178 15135 c-4 -4 -124 -33 -448 -107 -47 -10 -92 -21 -100 -23 -8
-2 -64 -15 -125 -29 -60 -13 -150 -34 -200 -46 -49 -12 -97 -23 -105 -25 -17
-4 -146 -34 -285 -66 -49 -11 -99 -23 -110 -25 -11 -3 -45 -11 -75 -18 l-55
-13 50 -7 c28 -3 73 -9 100 -11 28 -3 61 -7 75 -10 14 -2 54 -7 90 -10 36 -4
76 -8 90 -10 14 -2 43 -6 65 -9 22 -3 65 -8 95 -11 30 -3 91 -10 135 -16 83
-10 127 -15 208 -24 26 -3 62 -7 80 -9 17 -3 57 -8 87 -11 30 -4 62 -8 70 -10
8 -1 51 -6 94 -10 43 -4 86 -8 95 -10 9 -1 43 -6 76 -9 33 -4 75 -9 93 -12
l32 -5 0 270 c0 219 -3 271 -13 271 -8 0 -16 -2 -19 -5z"/>
<path d="M13285 13342 c6 -5 69 -36 140 -67 72 -31 150 -66 175 -77 25 -11
101 -45 170 -75 183 -80 181 -79 234 -103 27 -12 137 -60 245 -107 108 -47
224 -99 259 -114 34 -16 65 -29 67 -29 3 0 28 -11 56 -25 29 -13 55 -22 60
-20 6 5 20 57 35 135 3 14 10 43 15 65 5 22 12 50 14 61 3 12 19 82 35 155 17
72 29 133 27 135 -1 1 -67 5 -147 9 -318 12 -547 22 -730 31 -69 3 -159 7
-200 9 -41 1 -158 6 -260 10 -102 4 -189 10 -195 13 -7 3 -7 1 0 -6z"/>
<path d="M5880 13280 c0 -3 5 -34 11 -70 5 -36 12 -76 14 -90 2 -14 7 -45 11
-70 4 -25 8 -54 10 -65 1 -11 5 -36 9 -55 9 -43 12 -68 14 -100 3 -52 8 -52
176 6 88 31 230 80 315 109 183 63 548 190 710 247 63 22 126 44 140 48 l25 8
-25 2 c-14 1 -88 3 -165 5 -152 3 -479 11 -865 21 -374 9 -380 9 -380 4z"/>
<path d="M13145 11872 c194 -129 716 -472 719 -472 1 0 69 -45 151 -100 117
-77 153 -97 162 -87 20 21 193 368 193 388 0 17 -32 31 -101 44 -8 2 -44 10
-80 19 -35 9 -73 18 -84 20 -11 3 -76 18 -145 35 -177 43 -455 108 -705 166
-88 20 -169 39 -180 42 -11 2 21 -22 70 -55z"/>
<path d="M7455 11830 c-22 -4 -94 -17 -160 -29 -66 -13 -131 -25 -145 -27 -14
-3 -47 -9 -75 -14 -27 -5 -62 -12 -78 -14 -15 -3 -35 -7 -45 -10 -9 -3 -33 -7
-52 -10 -19 -3 -46 -8 -60 -11 -14 -2 -36 -7 -50 -10 -14 -2 -41 -7 -60 -10
-19 -3 -55 -10 -80 -15 -25 -5 -87 -17 -137 -26 -51 -9 -93 -17 -93 -19 0 -1
18 -51 41 -111 22 -60 52 -143 66 -184 14 -41 29 -79 33 -83 6 -7 387 218 602
356 31 21 62 37 68 37 5 0 10 3 10 8 0 4 10 12 23 18 12 6 78 46 147 88 122
74 126 81 45 66z"/>
<path d="M14552 7765 c-4 -97 -22 -133 -112 -229 -101 -107 -129 -138 -221
-237 -188 -203 -223 -245 -286 -341 -99 -151 -191 -360 -208 -473 -10 -67 -7
-222 6 -288 6 -34 27 -92 46 -128 68 -132 242 -289 320 -289 36 0 55 17 226
198 32 34 60 62 61 62 2 0 6 -14 10 -31 14 -74 103 -204 190 -279 41 -36 55
-42 112 -56 45 -10 59 -9 120 11 38 12 86 31 108 42 l39 20 -59 2 c-114 3
-177 34 -224 107 -51 80 -53 112 -54 729 l-1 570 -68 5 -68 5 38 40 c60 61 99
116 112 156 29 89 3 270 -57 393 l-29 59 -1 -48z m-185 -938 c6 -696 6 -677
-18 -704 -13 -13 -47 -35 -76 -49 -45 -22 -62 -26 -111 -21 -112 10 -172 53
-198 144 -35 122 -23 207 52 358 24 49 50 99 57 110 6 11 23 38 36 60 53 87
232 305 250 305 3 0 7 -91 8 -203z"/>
<path d="M18387 7772 c-17 -61 -25 -103 -31 -167 -11 -118 -88 -254 -229 -404
-112 -120 -145 -209 -163 -433 -9 -122 24 -213 119 -315 22 -24 49 -48 58 -54
16 -8 17 -6 8 23 -12 43 -11 127 2 208 21 129 96 317 117 295 4 -3 7 -171 8
-373 4 -775 7 -1042 14 -1042 3 0 57 50 119 110 l114 111 5 257 c3 141 6 572
6 957 1 649 0 702 -17 732 -22 41 -59 79 -97 98 -26 14 -29 13 -33 -3z"/>
<path d="M5236 7265 c1 -283 0 -515 -4 -516 -46 -7 -85 -8 -187 -9 -66 0 -131
2 -145 4 -14 3 -41 7 -61 10 -20 3 -93 26 -163 50 -69 25 -126 43 -126 41 0
-6 87 -131 114 -164 74 -90 160 -154 221 -165 83 -15 190 -24 301 -25 l51 -1
3 -62 c5 -120 4 -293 -3 -347 -7 -53 -42 -124 -75 -154 -25 -23 -100 -54 -147
-62 -87 -14 -269 -14 -317 1 -55 17 -103 62 -128 119 -20 46 -49 167 -57 235
-2 25 -6 54 -8 65 -2 11 -4 31 -4 44 l-1 24 -18 -24 c-73 -96 -73 -277 1 -424
78 -157 195 -259 323 -282 62 -12 108 -8 182 13 137 40 222 97 318 214 128
155 157 254 158 542 l1 118 175 0 175 0 1 -278 c1 -296 8 -416 26 -472 31 -98
114 -216 170 -243 28 -13 109 -27 178 -31 38 -1 89 17 123 45 39 32 49 54 20
45 -47 -13 -108 -16 -139 -6 -55 19 -144 141 -160 221 -4 19 -6 406 -5 862 2
786 1 827 -16 828 -91 5 -196 2 -200 -4 -3 -4 -4 -124 -3 -265 1 -222 2 -493
0 -513 0 -8 -192 31 -275 56 -30 8 -57 21 -62 28 -4 6 -8 187 -9 401 l-1 390
-89 83 c-49 46 -101 92 -115 103 l-27 20 4 -515z"/>
<path d="M7003 7738 c-22 -79 -126 -234 -261 -387 -32 -35 -64 -73 -74 -83 -9
-10 -45 -49 -80 -86 -71 -76 -123 -136 -165 -189 -15 -20 -33 -41 -40 -48 -25
-26 -125 -179 -153 -235 -71 -142 -89 -304 -55 -519 11 -76 55 -179 96 -225
52 -59 239 -186 274 -186 21 0 57 31 171 145 80 79 146 139 148 132 2 -6 14
-46 25 -87 12 -41 34 -108 48 -148 23 -66 30 -75 72 -100 42 -25 56 -27 156
-28 113 -2 235 12 235 27 0 8 -109 45 -163 54 -53 10 -94 32 -120 66 -22 30
-30 47 -45 99 -3 8 -6 282 -7 609 l-2 595 -54 4 c-30 2 -55 5 -56 6 -1 1 16
20 38 43 47 50 86 124 95 181 9 54 27 55 88 1 52 -46 70 -81 81 -160 5 -30 9
-310 10 -624 1 -313 5 -586 10 -605 12 -53 78 -180 119 -226 55 -64 113 -86
188 -71 37 8 123 52 180 93 l48 34 45 -34 c81 -62 152 -70 219 -23 60 42 142
112 229 197 l89 86 1 692 c1 381 0 692 -3 692 -9 0 -165 -120 -176 -136 -8
-10 -11 -55 -7 -142 13 -383 6 -1051 -13 -1157 -6 -37 -9 -39 -59 -53 -84 -23
-102 -23 -130 1 -37 32 -44 83 -37 272 6 167 7 560 1 750 l-3 110 -119 83
c-65 45 -121 82 -125 82 -4 0 -7 -289 -7 -643 1 -670 0 -693 -42 -739 -16 -17
-17 -17 -36 -1 -34 31 -66 124 -88 253 -22 133 -26 305 -18 755 4 215 1 254
-30 334 -58 155 -137 222 -318 273 l-81 23 -1 51 c-1 88 -30 184 -67 221 -18
18 -19 18 -31 -29z m-175 -1134 l0 -437 -60 -56 c-102 -94 -147 -110 -206 -74
-89 55 -140 145 -144 253 -5 165 50 335 152 476 38 52 245 274 256 274 1 0 2
-196 2 -436z"/>
<path d="M9365 7738 c-1 -67 -61 -172 -154 -268 -20 -21 -75 -80 -122 -131
-48 -52 -101 -110 -118 -129 -72 -77 -198 -240 -258 -332 -127 -193 -164 -308
-164 -497 1 -64 3 -125 5 -136 2 -11 7 -40 11 -65 17 -108 68 -214 129 -266
22 -19 83 -51 140 -73 119 -47 116 -48 221 56 79 79 150 133 174 133 13 0 21
-19 34 -80 30 -144 97 -249 182 -284 69 -29 190 -13 269 35 l30 18 -28 11
c-72 27 -173 72 -187 83 -8 7 -23 24 -33 39 -16 25 -17 73 -16 662 l1 635 -85
-2 -85 -2 24 30 c65 80 119 169 130 212 15 57 12 221 -4 279 -15 54 -52 108
-76 112 -17 2 -20 -3 -20 -40z m-159 -975 c1 -240 10 -504 19 -552 2 -12 -4
-26 -13 -33 -9 -7 -30 -38 -45 -68 -34 -68 -67 -93 -121 -93 -91 0 -218 100
-257 202 -26 70 -20 137 22 236 44 107 180 327 251 406 33 38 143 159 143 159
0 0 1 -116 1 -257z"/>
<path d="M10465 7759 c-4 -13 -13 -37 -21 -54 -48 -108 -34 -475 22 -586 7
-15 25 -41 40 -59 24 -28 161 -153 225 -205 13 -11 47 -38 74 -60 175 -141
187 -153 192 -211 8 -84 -66 -222 -117 -219 -68 5 -217 29 -225 37 -5 5 -11
76 -21 258 -4 69 -8 139 -9 155 -2 17 -3 35 -4 41 -1 6 -20 24 -43 40 -24 16
-73 50 -109 76 -37 27 -69 48 -71 48 -3 0 -5 -222 -5 -492 0 -273 -4 -502 -9
-514 -11 -26 -124 -123 -172 -147 -80 -42 -190 -39 -342 10 -148 46 -183 110
-184 330 0 132 -5 136 -42 38 -27 -72 -25 -207 5 -300 66 -202 188 -297 383
-296 135 0 211 18 308 73 146 82 225 171 255 290 24 92 28 121 29 220 l1 96
28 -16 c31 -19 107 -96 107 -109 0 -5 15 -56 34 -114 19 -57 53 -169 76 -249
50 -171 78 -227 142 -285 44 -40 143 -88 202 -99 15 -3 34 -7 44 -10 27 -8 93
-18 143 -21 79 -6 163 48 195 125 14 31 15 32 -81 -3 -49 -18 -107 -14 -177
14 -107 42 -145 102 -237 372 -72 210 -93 265 -126 317 l-25 40 43 21 c59 31
156 133 195 207 56 104 50 207 -18 342 -31 62 -87 127 -204 239 -126 121 -261
262 -303 316 -85 110 -153 233 -168 305 -12 55 -21 68 -30 39z"/>
<path d="M16031 7728 c-32 -128 -76 -194 -224 -333 -22 -21 -350 -295 -443
-370 -107 -87 -155 -139 -186 -203 -27 -55 -32 -75 -31 -136 1 -91 8 -131 33
-198 25 -68 78 -125 123 -133 19 -4 142 -8 273 -10 132 -1 250 -5 263 -8 136
-34 175 -59 174 -109 -2 -56 -41 -127 -92 -164 -77 -56 -317 -148 -487 -187
-133 -31 -264 -1 -354 80 -60 54 -121 141 -140 198 -25 75 -9 248 32 344 26
60 2 40 -58 -51 -62 -93 -85 -170 -83 -276 5 -227 97 -369 309 -474 119 -59
201 -81 310 -82 79 0 102 2 185 19 43 8 159 69 235 123 90 64 182 158 208 214
29 62 41 172 31 283 -11 117 -34 186 -75 229 -53 55 -97 61 -421 59 l-283 -2
15 35 c22 53 79 126 130 168 24 20 108 78 187 129 195 126 229 152 293 228 92
108 156 266 149 364 -3 34 -17 157 -19 165 -1 3 -7 32 -14 65 -19 87 -25 92
-40 33z"/>
<path d="M17025 7274 c0 -278 -2 -509 -5 -514 -15 -24 -356 -31 -477 -11 -73
13 -129 36 -166 68 -14 12 -18 13 -12 3 16 -29 63 -95 85 -120 96 -110 120
-134 160 -159 36 -23 93 -48 130 -56 47 -11 123 -19 195 -19 l90 -1 1 -220 0
-220 -80 -80 c-89 -88 -130 -110 -217 -114 -101 -4 -245 61 -354 161 -86 79
-127 173 -127 297 0 55 -2 61 -9 36 -16 -53 -20 -79 -26 -162 -5 -77 -3 -88
27 -165 105 -264 215 -351 435 -344 171 6 283 56 417 189 115 114 127 162 121
500 l-3 208 181 -5 c100 -3 184 -8 187 -11 3 -3 5 -171 5 -373 -1 -335 0 -371
17 -409 19 -43 115 -146 188 -202 80 -62 187 -87 247 -58 23 11 75 58 75 67 0
4 -19 6 -42 5 -51 -2 -135 16 -165 35 -26 16 -58 73 -67 115 -3 17 -9 44 -12
60 -4 17 -8 404 -10 860 -1 457 -3 841 -3 855 l-1 25 -119 2 -118 3 -1 -383
c-1 -210 -2 -392 -2 -404 0 -21 -1 -22 -39 -8 -39 14 -168 36 -231 40 -19 1
-39 3 -45 4 -6 1 -10 140 -9 399 l1 397 -106 108 c-58 59 -108 107 -111 107
-3 0 -5 -228 -5 -506z"/>
<path d="M4285 7729 c-12 -53 -78 -155 -164 -251 -45 -50 -210 -195 -361 -317
-284 -230 -348 -299 -365 -391 -21 -114 -23 -163 -11 -244 6 -38 16 -57 52
-92 24 -24 48 -44 54 -44 6 0 24 -10 40 -22 27 -19 42 -22 143 -21 61 0 191 4
287 8 l175 8 53 -50 c44 -42 52 -55 52 -85 0 -48 -19 -73 -135 -174 -102 -89
-198 -150 -274 -174 -81 -25 -205 -27 -314 -6 -161 31 -238 90 -310 235 -39
78 -42 90 -42 165 0 45 4 106 8 136 l8 55 -23 -35 c-84 -125 -109 -322 -59
-464 63 -179 158 -254 408 -321 159 -43 325 -20 481 67 231 128 343 241 368
368 11 61 6 213 -10 263 -28 93 -80 145 -173 173 -76 24 -273 33 -498 24
l-110 -5 4 25 c10 75 78 156 211 250 88 62 251 188 316 242 123 103 176 154
188 176 24 48 39 144 41 280 3 164 -22 304 -40 221z"/>
<path d="M11803 7485 c-253 -69 -463 -335 -465 -589 -1 -105 5 -145 42 -274
31 -106 46 -138 87 -183 44 -49 102 -84 173 -105 82 -24 87 -25 219 -29 132
-4 159 2 209 48 44 40 30 52 -60 52 -116 1 -182 11 -242 40 -108 51 -161 135
-174 275 -25 253 12 399 127 501 113 101 241 153 341 138 25 -3 70 -9 100 -13
96 -12 168 -70 248 -201 23 -38 37 -74 38 -100 2 -36 12 -766 17 -1227 1 -114
6 -174 12 -171 50 28 205 138 206 147 0 6 2 286 4 621 2 336 4 619 4 631 1 34
68 114 89 107 30 -11 66 -43 92 -83 l25 -38 0 -507 -1 -507 22 -17 c12 -9 30
-22 40 -29 11 -7 54 -37 97 -67 42 -30 79 -55 81 -55 2 0 5 208 6 463 3 758 4
728 -13 776 -18 50 -11 80 25 105 59 41 145 4 183 -79 14 -31 14 -31 20 -702
l3 -383 52 -142 c56 -154 76 -182 160 -231 78 -45 211 -64 305 -43 11 2 26 5
33 5 6 1 12 7 12 14 0 9 -32 19 -96 30 -139 25 -180 49 -222 132 -20 40 -20
56 -19 620 1 319 -1 614 -4 656 -9 97 -43 171 -113 242 -55 55 -128 97 -168
97 -40 -1 -102 -36 -165 -94 -33 -31 -64 -56 -67 -56 -4 0 -17 9 -29 21 -57
54 -157 84 -218 66 -43 -13 -114 -77 -160 -144 l-31 -45 -26 24 c-14 13 -62
58 -106 100 -103 98 -119 110 -193 147 -120 61 -376 90 -500 56z"/>
<path d="M10037 6703 c-36 -32 -66 -62 -66 -68 -1 -5 29 -38 66 -73 l68 -64
63 66 62 66 -55 58 c-30 31 -55 60 -55 65 0 17 -21 4 -83 -50z"/>
<path d="M10048 6413 c-23 -21 -52 -47 -64 -59 l-21 -20 55 -50 c30 -27 61
-53 68 -57 9 -5 36 9 78 41 l65 49 -64 66 c-35 37 -66 67 -69 67 -3 0 -25 -17
-48 -37z"/>
<path d="M3561 5522 c-8 -10 -41 -45 -73 -79 l-59 -62 61 -58 c34 -32 68 -61
75 -65 8 -5 36 19 79 67 59 65 81 105 58 105 -4 0 -25 17 -47 38 -77 72 -78
72 -94 54z"/>
<path d="M15290 5478 c-102 -115 -100 -97 -18 -167 l73 -62 50 53 c86 91 85
78 15 163 -35 41 -63 75 -64 75 0 0 -26 -28 -56 -62z"/>
<path d="M3792 5461 l-51 -69 61 -71 c33 -39 61 -71 63 -71 2 0 31 32 65 71
l62 72 -68 68 c-38 38 -72 69 -75 69 -4 0 -30 -31 -57 -69z"/>
<path d="M15603 5483 c-21 -25 -46 -53 -55 -62 -10 -8 -18 -19 -18 -23 0 -10
112 -133 121 -133 11 0 119 97 119 106 0 6 -29 43 -65 84 l-65 74 -37 -46z"/>
<path d="M7058 4659 c-13 -7 -15 -52 -15 -318 0 -298 1 -310 20 -315 10 -2 30
-1 43 4 22 9 23 13 23 117 0 59 0 123 0 141 l1 33 143 -3 142 -3 0 -137 c0
-75 2 -139 5 -142 12 -11 60 -14 68 -3 10 12 15 575 6 608 -3 9 -15 19 -28 21
-48 9 -51 -1 -51 -140 l0 -130 -142 1 c-139 0 -143 0 -144 21 0 11 -1 70 -2
130 -2 109 -2 110 -28 116 -14 4 -33 4 -41 -1z"/>
<path d="M12066 4655 c-100 -35 -141 -151 -85 -241 21 -35 45 -52 146 -103 80
-42 113 -75 113 -115 0 -95 -125 -135 -239 -77 -53 28 -61 26 -61 -9 0 -55 67
-90 172 -90 122 0 200 58 214 159 12 88 -32 146 -162 210 -115 57 -150 110
-109 168 32 46 139 50 199 7 14 -9 23 -10 32 -3 20 16 1 62 -34 82 -40 24
-135 30 -186 12z"/>
<path d="M12526 4654 c-65 -23 -99 -64 -109 -132 -13 -84 30 -139 163 -208
109 -56 131 -86 112 -152 -22 -73 -131 -93 -231 -43 -22 12 -45 21 -51 21 -18
0 -11 -58 10 -78 44 -41 158 -55 241 -31 107 32 161 168 103 257 -24 37 -37
46 -135 97 -48 24 -96 56 -108 71 -28 35 -27 76 3 111 21 24 31 27 77 27 33
-1 72 -9 99 -22 l45 -21 6 22 c9 36 0 53 -39 72 -48 22 -136 27 -186 9z"/>
<path d="M13840 4659 c-73 -14 -136 -64 -171 -136 -67 -140 -42 -368 50 -445
51 -43 108 -60 198 -59 195 1 305 168 272 409 -15 110 -65 184 -148 218 -43
18 -142 24 -201 13z m139 -74 c79 -20 131 -124 125 -252 -7 -160 -66 -234
-188 -239 -125 -6 -187 66 -193 224 -4 110 15 178 61 224 50 50 111 64 195 43z"/>
<path d="M14353 4662 l-23 -3 0 -315 0 -314 48 -1 c286 -5 291 -4 278 44 l-6
27 -115 0 c-85 0 -115 3 -116 13 -1 6 -3 127 -4 267 -1 140 -3 260 -4 266 -1
14 -28 21 -58 16z"/>
<path d="M14773 4662 l-23 -3 0 -309 c0 -216 3 -311 11 -316 18 -11 299 -8
311 4 6 6 8 22 4 36 -6 25 -7 25 -124 28 l-117 3 -1 270 c-1 149 -2 273 -3
276 -2 10 -32 15 -58 11z"/>
<path d="M6478 4636 c-8 -43 4 -49 101 -48 l91 0 1 -32 c0 -17 0 -142 0 -277
0 -233 1 -247 18 -252 11 -2 30 -2 44 0 l24 5 1 266 c0 147 1 272 1 278 1 8
26 12 74 12 124 0 117 -2 117 37 l0 35 -234 0 -234 0 -4 -24z"/>
<path d="M7672 4643 c-10 -21 -10 -598 0 -608 4 -4 79 -7 168 -7 167 -1 182 3
175 41 -2 9 -4 19 -4 23 -1 4 -47 7 -103 7 -57 0 -115 0 -130 0 l-28 1 0 110
0 110 33 1 c17 0 64 1 104 1 71 0 91 9 87 36 -1 6 -2 17 -3 22 0 6 -45 10
-111 10 l-110 0 0 100 0 99 128 3 127 3 0 30 0 30 -162 3 c-147 2 -163 1 -171
-15z"/>
<path d="M8380 4346 c0 -246 3 -316 13 -317 6 -1 19 -2 27 -3 42 -4 46 7 45
141 -1 70 1 134 3 141 3 9 41 12 143 12 l139 0 1 -37 c0 -21 0 -86 0 -145 0
-60 3 -108 7 -109 4 0 16 -2 26 -4 11 -2 27 0 35 5 14 7 16 44 15 312 -1 166
-2 306 -3 311 0 4 -16 7 -35 7 -43 0 -46 -9 -45 -125 0 -50 0 -102 0 -117 l-1
-26 -140 1 c-77 0 -141 3 -141 6 -1 3 -2 62 -3 131 l-1 125 -43 3 -42 3 0
-315z"/>
<path d="M9150 4638 c-6 -13 -57 -151 -114 -308 -106 -291 -110 -315 -62 -306
11 3 26 5 32 5 6 1 21 33 34 72 14 40 29 77 36 83 7 8 55 12 134 11 l124 0 28
-80 c16 -44 31 -82 33 -84 8 -8 76 -7 81 1 5 7 -60 192 -183 531 l-36 97 -49
0 c-41 0 -50 -4 -58 -22z m112 -231 c26 -76 48 -140 48 -142 0 -1 -47 -3 -105
-4 -70 0 -105 3 -105 10 0 10 66 207 92 273 8 19 14 24 17 15 2 -8 26 -76 53
-152z"/>
<path d="M9588 4654 c-5 -4 -8 -146 -8 -316 0 -239 3 -308 13 -309 6 -1 22 -3
35 -4 12 -1 26 3 30 9 4 6 7 61 7 121 l0 110 65 3 c94 4 136 18 179 61 91 91
72 254 -36 307 -29 14 -67 19 -158 22 -66 2 -123 0 -127 -4z m228 -79 c57 -24
80 -103 49 -169 -25 -53 -70 -70 -170 -67 l-31 1 1 125 0 125 58 0 c32 0 73
-7 93 -15z"/>
<path d="M10104 4648 c-9 -14 -9 -606 0 -615 8 -8 64 -8 73 0 4 4 6 58 6 121
l-1 113 42 0 c169 0 258 70 259 202 1 92 -43 152 -128 178 -52 16 -241 17
-251 1z m214 -67 c53 -16 82 -61 78 -122 -5 -75 -43 -109 -131 -118 -42 -5
-69 -3 -74 3 -5 6 -9 64 -9 129 l0 117 51 0 c29 0 67 -4 85 -9z"/>
<path d="M10619 4653 c-1 -5 -2 -146 -3 -315 -1 -243 1 -308 11 -309 7 -1 20
-1 28 -1 48 0 45 -18 45 317 l0 315 -40 0 c-22 0 -41 -3 -41 -7z"/>
<path d="M10875 4649 c-4 -6 -7 -146 -7 -311 0 -230 3 -302 13 -308 11 -8 59
-4 68 5 2 2 3 123 3 267 l0 263 27 -55 c15 -30 50 -98 78 -150 28 -52 76 -142
107 -200 34 -66 65 -111 82 -122 25 -15 78 -17 92 -3 8 8 9 603 1 616 -3 6
-21 9 -40 7 l-34 -3 -3 -254 -2 -255 -38 75 c-130 253 -208 397 -225 417 -16
17 -31 22 -68 22 -26 0 -51 -5 -54 -11z"/>
<path d="M11522 4648 c-14 -14 -17 -584 -3 -607 7 -11 43 -14 171 -13 172 0
186 4 170 46 -7 20 -16 21 -131 24 -67 1 -125 6 -128 11 -5 7 -6 130 -2 201 1
12 18 15 103 13 110 -2 132 6 121 47 -5 18 -15 20 -114 20 -80 0 -109 3 -110
13 -1 17 -1 159 0 174 1 9 37 13 128 15 l128 3 0 30 0 30 -160 3 c-116 2 -164
-1 -173 -10z"/>
<path d="M13144 4648 c-5 -7 -9 -147 -9 -311 -1 -316 -1 -316 45 -311 8 1 21
2 28 3 9 1 12 36 12 141 l0 140 43 0 c83 0 112 -32 173 -185 21 -52 40 -95 43
-96 86 -15 90 -6 41 112 -48 121 -74 165 -102 180 -19 10 -18 12 17 33 61 34
80 67 80 141 0 74 -19 107 -81 139 -32 17 -61 22 -160 24 -93 3 -124 0 -130
-10z m237 -74 c64 -32 65 -139 1 -177 -23 -13 -95 -22 -149 -18 -10 1 -13 29
-13 107 l0 105 68 -2 c37 -1 78 -8 93 -15z"/>
</g>
</svg>
